<?xml version="1.0" encoding="UTF-8"?>
<!DOCTYPE svg PUBLIC "-//W3C//DTD SVG 1.1//EN" "http://www.w3.org/Graphics/SVG/1.1/DTD/svg11.dtd">
<!-- Creator: CorelDRAW X8 -->
<svg xmlns="http://www.w3.org/2000/svg" xml:space="preserve" width="50.8mm" height="50.8mm" version="1.1" style="shape-rendering:geometricPrecision; text-rendering:geometricPrecision; image-rendering:optimizeQuality; fill-rule:evenodd; clip-rule:evenodd"
viewBox="0 0 5080 5080"
 xmlns:xlink="http://www.w3.org/1999/xlink">
 <defs>
  <style type="text/css">
   <![CDATA[
    .fil0 {fill:black}
    .fil1 {fill:#FEFEFE;fill-rule:nonzero}
   ]]>
  </style>
 </defs>
 <g id="Camada_x0020_1">
  <metadata id="CorelCorpID_0Corel-Layer"/>
  <circle class="fil0" cx="2538" cy="2525" r="2413"/>
  <path class="fil1" d="M3531 1996c0,333 -65,626 -194,879 -129,252 -305,430 -529,533l402 621 -568 0 -282 -518 -41 0c-270,0 -480,-78 -631,-233 -151,-156 -228,-372 -228,-648 0,-280 53,-537 157,-771 105,-235 248,-415 432,-540 183,-126 396,-189 636,-189 269,0 477,77 624,228 148,152 222,365 222,638zm-886 -457c-128,0 -244,48 -351,144 -106,97 -190,230 -251,398 -60,169 -90,351 -90,549 0,155 34,272 104,351 71,79 169,119 297,119 128,0 244,-46 349,-138 105,-92 187,-221 246,-389 59,-167 88,-356 88,-565 0,-149 -34,-265 -102,-347 -69,-81 -166,-122 -290,-122z"/>
 </g>
</svg>
